<svg width="240" height="240" viewBox="0 0 120 120" xmlns="http://www.w3.org/2000/svg">
  <defs>
    <filter id="shadow" x="-25%" y="-25%" width="150%" height="150%">
      <feDropShadow dx="0" dy="4" stdDeviation="4" flood-color="#000" flood-opacity="0.18"/>
    </filter>
    <linearGradient id="glass" x1="0" x2="0" y1="0" y2="1">
      <stop offset="0%" stop-color="#ffffff" stop-opacity="0.95"/>
      <stop offset="100%" stop-color="#e6e6e6" stop-opacity="0.95"/>
    </linearGradient>
    <linearGradient id="body" x1="0" x2="0" y1="0" y2="1">
      <stop offset="0%" stop-color="#1f1f1f"/>
      <stop offset="100%" stop-color="#101010"/>
    </linearGradient>
    <linearGradient id="red" x1="0" x2="0" y1="0" y2="1">
      <stop offset="0%" stop-color="#9e2424"/>
      <stop offset="100%" stop-color="#7b1a1a"/>
    </linearGradient>
  </defs>
  <g filter="url(#shadow)">
    <path d="M18 40 h84 a10 10 0 0 1 10 10 v22 a10 10 0 0 1 -10 10 h-84 a10 10 0 0 1 -10 -10 v-22 a10 10 0 0 1 10 -10 z" fill="url(#body)"/>
    <rect x="22" y="28" width="76" height="14" rx="6" fill="url(#red)"/>
    <rect x="34" y="45" width="52" height="28" rx="6" fill="url(#glass)" stroke="#d9d9d9" stroke-width="1"/>
    <circle cx="24" cy="42" r="8" fill="#f0c33a" stroke="#d09f22" stroke-width="1"/>
    <circle cx="96" cy="42" r="8" fill="#f0c33a" stroke="#d09f22" stroke-width="1"/>
    <path d="M60 14 c0 -5 8 -5 8 0 v8 h-16 v-8 c0 -5 8 -5 8 0 z" fill="#8b2323" stroke="#6b1717" stroke-width="0.8"/>
    <path d="M48 48 h24 v22 a5 5 0 0 1 -5 5 h-14 a5 5 0 0 1 -5 -5 z" fill="#8b2323"/>
    <path d="M44 86 c-6 0 -10 4 -10 10 h8 a4 4 0 0 1 4 -4 h28 a4 4 0 0 1 4 4 h8 c0 -6 -4 -10 -10 -10 h-22 z" fill="#8b2323"/>
    <path d="M60 12 c0 -6 8 -6 8 0 v8 h-16 v-8 c0 -6 8 -6 8 0 z" fill="rgba(255,255,255,0.6)"/>
    <path d="M60 14 l-6 -3 v-4 a6 6 0 0 1 12 0 v4 l-6 3 z" fill="rgba(255,255,255,0.35)"/>
  </g>
  <path d="M60 14 c0 -10 12 -20 12 -28 a12 12 0 0 0 -24 0 c0 8 12 18 12 28 z" fill="#8b2323" stroke="#601313" stroke-width="1"/>
  <circle cx="60" cy="14" r="4" fill="#ffffff"/>
  <text x="60" y="118" text-anchor="middle" font-family="Montserrat, sans-serif" font-size="18" fill="#8b2323" font-weight="800" letter-spacing="0.5">Tri-Wheel</text>
</svg>
